<svg width="40" height="40" viewBox="0 0 40 40" fill="none" xmlns="http://www.w3.org/2000/svg">
<g id="chat-alt-2">
<g id="Group 55">
<g id="Vector" filter="url(#filter0_d_99_429)">
<path d="M2.56348 9.01226C2.56348 7.84921 3.02549 6.7338 3.84789 5.9114C4.67029 5.089 5.7857 4.62698 6.94875 4.62698H22.2972C23.4603 4.62698 24.5757 5.089 25.3981 5.9114C26.2205 6.7338 26.6825 7.84921 26.6825 9.01226V17.7828C26.6825 18.9458 26.2205 20.0613 25.3981 20.8837C24.5757 21.7061 23.4603 22.1681 22.2972 22.1681H17.9119L11.334 28.746V22.1681H6.94875C5.7857 22.1681 4.67029 21.7061 3.84789 20.8837C3.02549 20.0613 2.56348 18.9458 2.56348 17.7828V9.01226Z" fill="#6EEA29"/>
<path d="M17.9119 21.5681H17.6634L17.4877 21.7438L11.934 27.2975V22.1681V21.5681H11.334H6.94875C5.94483 21.5681 4.98203 21.1693 4.27216 20.4594C3.56228 19.7495 3.16348 18.7867 3.16348 17.7828V9.01226C3.16348 8.00834 3.56228 7.04554 4.27216 6.33566C4.98203 5.62579 5.94483 5.22698 6.94875 5.22698H22.2972C23.3011 5.22698 24.2639 5.62579 24.9738 6.33566L25.3928 5.91664L24.9738 6.33566C25.6837 7.04554 26.0825 8.00834 26.0825 9.01226V17.7828C26.0825 18.7867 25.6837 19.7495 24.9738 20.4594C24.2639 21.1693 23.3011 21.5681 22.2972 21.5681H17.9119Z" stroke="black" stroke-width="1.2"/>
</g>
<g id="Vector_2" filter="url(#filter1_d_99_429)">
<path d="M27.3028 11.7641V15.3418C27.3028 17.6679 27.7635 20.5667 26.1187 22.2115C24.4739 23.8563 24.0812 24.1123 21.7551 24.1123H17.3519L13.4797 28.7943C14.0937 29.121 14.7931 29.3052 15.5364 29.3052H19.9217L26.4996 35.8831V29.3052H30.8849C32.0479 29.3052 33.1633 28.8432 33.9857 28.0208C34.8081 27.1984 35.2702 26.083 35.2702 24.9199V16.1494C35.2702 14.9864 34.8081 13.8709 33.9857 13.0485C33.1633 12.2261 32.0479 11.7641 30.8849 11.7641L27.3028 11.7641Z" fill="#6EEA29"/>
<path d="M20.346 28.881L20.1702 28.7052H19.9217H15.5364C15.1618 28.7052 14.8008 28.6512 14.46 28.5505L17.6343 24.7123H21.7551C22.9193 24.7123 23.7165 24.6533 24.4402 24.3251C25.1513 24.0027 25.736 23.4427 26.543 22.6357C27.5166 21.6621 27.8315 20.3508 27.9259 19.0764C27.9866 18.2576 27.9572 17.3649 27.9302 16.5421C27.9162 16.1167 27.9028 15.7099 27.9028 15.3418V12.3641L30.8849 12.3641C31.8888 12.3641 32.8516 12.7629 33.5615 13.4728L33.9857 13.0485L33.5615 13.4728C34.2714 14.1827 34.6702 15.1455 34.6702 16.1494V24.9199C34.6702 25.9239 34.2714 26.8867 33.5615 27.5965C32.8516 28.3064 31.8888 28.7052 30.8849 28.7052H26.4996H25.8996V29.3052V34.4346L20.346 28.881Z" stroke="black" stroke-width="1.2"/>
</g>
<path id="Vector 13" d="M15.5015 31.7981L13.3088 28.5049L19.2103 28.7343L20.7695 30.5086L15.5015 31.7981Z" fill="black"/>
<path id="Vector 16" d="M13.5349 32.0178L11.3337 28.7417L13.462 26.1751L15.1709 30.1035L13.5349 32.0178Z" fill="black"/>
<path id="Vector 14" d="M28.1157 9.85876L25.7856 6.3298L26.5775 10.4922L28.1157 9.85876Z" fill="black"/>
<path id="Vector 15" d="M5.69408 23.8236L3.22339 20.071L7.67524 22.5183L5.69408 23.8236Z" fill="black"/>
</g>
</g>
<defs>
<filter id="filter0_d_99_429" x="2.56348" y="4.62698" width="26.1189" height="27.119" filterUnits="userSpaceOnUse" color-interpolation-filters="sRGB">
<feFlood flood-opacity="0" result="BackgroundImageFix"/>
<feColorMatrix in="SourceAlpha" type="matrix" values="0 0 0 0 0 0 0 0 0 0 0 0 0 0 0 0 0 0 127 0" result="hardAlpha"/>
<feOffset dx="2" dy="3"/>
<feComposite in2="hardAlpha" operator="out"/>
<feColorMatrix type="matrix" values="0 0 0 0 0 0 0 0 0 0 0 0 0 0 0 0 0 0 1 0"/>
<feBlend mode="normal" in2="BackgroundImageFix" result="effect1_dropShadow_99_429"/>
<feBlend mode="normal" in="SourceGraphic" in2="effect1_dropShadow_99_429" result="shape"/>
</filter>
<filter id="filter1_d_99_429" x="13.4797" y="11.7641" width="23.7905" height="27.119" filterUnits="userSpaceOnUse" color-interpolation-filters="sRGB">
<feFlood flood-opacity="0" result="BackgroundImageFix"/>
<feColorMatrix in="SourceAlpha" type="matrix" values="0 0 0 0 0 0 0 0 0 0 0 0 0 0 0 0 0 0 127 0" result="hardAlpha"/>
<feOffset dx="2" dy="3"/>
<feComposite in2="hardAlpha" operator="out"/>
<feColorMatrix type="matrix" values="0 0 0 0 0 0 0 0 0 0 0 0 0 0 0 0 0 0 1 0"/>
<feBlend mode="normal" in2="BackgroundImageFix" result="effect1_dropShadow_99_429"/>
<feBlend mode="normal" in="SourceGraphic" in2="effect1_dropShadow_99_429" result="shape"/>
</filter>
</defs>
</svg>
