<svg width="40" height="40" viewBox="0 0 40 40" fill="none" xmlns="http://www.w3.org/2000/svg">
<g id="&#230;&#147;&#141;&#228;&#189;&#156;&#231;&#174;&#128;&#229;&#141;&#149; 1">
<g id="Ellipse 176" filter="url(#filter0_d_99_511)">
<circle cx="19.9999" cy="20" r="16.3391" fill="#6EEA29"/>
<circle cx="19.9999" cy="20" r="15.739" stroke="black" stroke-width="1.2"/>
</g>
<path id="Vector" d="M14.2766 15.5194L14.2767 15.5194C14.3593 15.6018 14.4573 15.6671 14.5652 15.7116C14.673 15.7561 14.7886 15.7789 14.9052 15.7788C15.0219 15.7786 15.1374 15.7555 15.2451 15.7107C15.3528 15.6659 15.4507 15.6003 15.5331 15.5177C15.6154 15.4351 15.6807 15.337 15.7252 15.2292C15.7697 15.1213 15.7925 15.0058 15.7924 14.8891C15.7922 14.7725 15.7691 14.657 15.7243 14.5492C15.6795 14.4415 15.6139 14.3437 15.5313 14.2613L13.7782 12.5082L13.778 12.5081C13.611 12.3418 13.3849 12.2485 13.1492 12.2485C12.9136 12.2485 12.6875 12.3418 12.5204 12.5081L12.5201 12.5084C12.3539 12.6754 12.2605 12.9015 12.2605 13.1372C12.2605 13.3729 12.3539 13.5989 12.5201 13.766L12.5203 13.7662L14.2766 15.5194ZM13.4133 23.4082L13.4133 23.4081L15.1665 21.656L15.1667 21.6558C15.3329 21.4888 15.4263 21.2627 15.4263 21.027C15.4263 20.7913 15.3329 20.5653 15.1667 20.3982L15.1664 20.3979C14.9993 20.2316 14.7732 20.1383 14.5376 20.1383C14.3019 20.1383 14.0758 20.2316 13.9088 20.3979L13.9086 20.3981L12.1587 22.1501C12.1586 22.1501 12.1586 22.1501 12.1586 22.1501C12.076 22.2325 12.0105 22.3303 11.9657 22.438C11.9209 22.5457 11.8977 22.6612 11.8976 22.7779C11.8974 22.8946 11.9202 23.0101 11.9647 23.118C12.0092 23.2258 12.0745 23.3238 12.1569 23.4064C12.2393 23.4891 12.3371 23.5546 12.4448 23.5994C12.5526 23.6442 12.668 23.6674 12.7847 23.6675C12.9014 23.6677 13.0169 23.6449 13.1248 23.6004C13.2326 23.5559 13.3306 23.4906 13.4133 23.4082ZM17.1578 11.0166L17.1578 11.0166V11.0202V13.501H17.1577L17.1578 13.5046C17.1662 13.735 17.2636 13.9532 17.4296 14.1132C17.5955 14.2732 17.817 14.3626 18.0476 14.3626C18.2781 14.3626 18.4996 14.2732 18.6656 14.1132C18.8315 13.9532 18.9289 13.735 18.9373 13.5046L18.9374 13.5046V13.501V11.0202H18.9375L18.9373 11.0166C18.9289 10.7862 18.8315 10.5681 18.6656 10.408C18.4996 10.248 18.2781 10.1586 18.0476 10.1586C17.817 10.1586 17.5955 10.248 17.4296 10.408C17.2636 10.5681 17.1662 10.7862 17.1578 11.0166ZM21.668 15.1576L21.6681 15.1576L23.4212 13.4034L23.4214 13.4032C23.5876 13.2362 23.681 13.0101 23.681 12.7744C23.681 12.5388 23.5876 12.3127 23.4214 12.1456L23.421 12.1453C23.254 11.979 23.0279 11.8857 22.7922 11.8857C22.5566 11.8857 22.3305 11.979 22.1634 12.1453L22.1633 12.1455L20.4101 13.8986C20.3275 13.9812 20.262 14.0793 20.2173 14.1872C20.1726 14.2951 20.1496 14.4108 20.1496 14.5276C20.1496 14.7635 20.2433 14.9898 20.4101 15.1566C20.5769 15.3234 20.8032 15.4171 21.0391 15.4171C21.2746 15.4171 21.501 15.3247 21.668 15.1576ZM11.0354 18.9222H13.5162C13.7519 18.9222 13.978 18.8286 14.1446 18.6619C14.3113 18.4952 14.405 18.2692 14.405 18.0334C14.405 17.7977 14.3113 17.5717 14.1446 17.405C13.978 17.2383 13.7519 17.1447 13.5162 17.1447H11.0354C10.9186 17.1447 10.803 17.1677 10.6951 17.2124C10.5872 17.2571 10.4891 17.3226 10.4066 17.4051C10.324 17.4877 10.2585 17.5857 10.2138 17.6936C10.1691 17.8015 10.1461 17.9172 10.1461 18.034C10.1461 18.1507 10.1691 18.2664 10.2138 18.3743C10.2585 18.4822 10.324 18.5802 10.4066 18.6628C10.4891 18.7454 10.5872 18.8109 10.6951 18.8556C10.8036 18.9005 10.9193 18.9222 11.0354 18.9222Z" fill="black" stroke="black" stroke-width="0.2"/>
<path id="Vector_2" d="M17.1615 17.9072L17.1615 17.9072L17.1616 17.9075L20.7678 26.9855L20.7681 26.986C20.8087 27.0865 20.8766 27.1736 20.964 27.2375C21.0515 27.3013 21.155 27.3393 21.263 27.3471C21.3709 27.3549 21.4788 27.3322 21.5745 27.2816C21.6702 27.231 21.7498 27.1545 21.8044 27.0609L21.8047 27.0604L22.91 25.138L25.6581 27.8981C25.7117 27.9519 25.7752 27.9946 25.8453 28.0237C25.9153 28.0529 25.9904 28.0679 26.0662 28.0679C26.142 28.0679 26.2171 28.0529 26.2871 28.0237C26.3571 27.9946 26.4207 27.9519 26.4743 27.8981L27.8612 26.5059L27.8614 26.5057C27.9694 26.3967 28.0299 26.2494 28.0299 26.0958C28.0299 25.9423 27.9694 25.7949 27.8614 25.686L27.8613 25.6859L25.1131 22.925L27.0279 21.8145L27.0286 21.8141C27.1216 21.7591 27.1975 21.6792 27.2476 21.5833C27.2978 21.4874 27.3202 21.3794 27.3125 21.2715C27.3047 21.1635 27.2671 21.0598 27.2038 20.9722C27.1404 20.8845 27.0539 20.8163 26.9539 20.7753L26.9532 20.775L17.9125 17.1539C17.9124 17.1539 17.9124 17.1539 17.9123 17.1539C17.8074 17.1115 17.6923 17.1011 17.5815 17.1241C17.4707 17.1471 17.3692 17.2024 17.2897 17.2831C17.2101 17.3633 17.1557 17.4651 17.1329 17.5759C17.1101 17.6868 17.12 17.8019 17.1615 17.9072Z" fill="black" stroke="black" stroke-width="0.2"/>
</g>
<defs>
<filter id="filter0_d_99_511" x="3.66089" y="3.66095" width="34.678" height="34.6781" filterUnits="userSpaceOnUse" color-interpolation-filters="sRGB">
<feFlood flood-opacity="0" result="BackgroundImageFix"/>
<feColorMatrix in="SourceAlpha" type="matrix" values="0 0 0 0 0 0 0 0 0 0 0 0 0 0 0 0 0 0 127 0" result="hardAlpha"/>
<feOffset dx="2" dy="2"/>
<feComposite in2="hardAlpha" operator="out"/>
<feColorMatrix type="matrix" values="0 0 0 0 0 0 0 0 0 0 0 0 0 0 0 0 0 0 1 0"/>
<feBlend mode="normal" in2="BackgroundImageFix" result="effect1_dropShadow_99_511"/>
<feBlend mode="normal" in="SourceGraphic" in2="effect1_dropShadow_99_511" result="shape"/>
</filter>
</defs>
</svg>
